<svg width="42" height="42" viewBox="0 0 42 42" fill="none" xmlns="http://www.w3.org/2000/svg">
<path d="M36.155 12.705C36.155 12.5825 35.98 12.46 35.8925 12.3375L35.735 12.1625C35.3276 11.6594 34.8135 11.2529 34.23 10.9725L23.03 5.7225C22.4099 5.43676 21.7353 5.28879 21.0525 5.28879C20.3697 5.28879 19.6951 5.43676 19.075 5.7225L7.875 10.9725C7.29445 11.2577 6.78138 11.6634 6.37 12.1625L6.16 12.25C6.0582 12.3552 5.97001 12.4728 5.8975 12.6C5.48001 13.2601 5.25571 14.024 5.25 14.805V27.16C5.25234 27.9947 5.49438 28.8112 5.94732 29.5123C6.40026 30.2134 7.04505 30.7697 7.805 31.115L19.005 36.365C19.6275 36.6534 20.3052 36.8028 20.9913 36.8028C21.6773 36.8028 22.355 36.6534 22.9775 36.365L34.1775 31.115C34.9353 30.7748 35.5802 30.225 36.0359 29.5305C36.4917 28.836 36.7395 28.0257 36.75 27.195V14.805C36.741 14.0647 36.5357 13.34 36.155 12.705ZM20.4925 8.855C20.6527 8.78565 20.8254 8.74987 21 8.74987C21.1746 8.74987 21.3473 8.78565 21.5075 8.855L30.835 13.195L21 17.7625L11.165 13.195L20.4925 8.855ZM9.275 28C9.12264 27.9409 8.99133 27.8378 8.89782 27.7038C8.80432 27.5697 8.75285 27.4109 8.75 27.2475V15.925L19.25 20.8075V32.5675L9.275 28ZM32.7075 28L22.75 32.5675V20.8075L33.25 15.925V27.195C33.254 27.3688 33.204 27.5396 33.1068 27.6838C33.0096 27.828 32.8701 27.9385 32.7075 28Z" fill="#8321FF"/>
</svg>
